<svg xmlns="http://www.w3.org/2000/svg" width="1420" height="800" font-family="Segoe UI,Arial" font-size="12">
<rect width="1420" height="800" fill="#0d1117"/>
<defs><marker id="crow" markerWidth="14" markerHeight="14" refX="12" refY="7" orient="auto"><path d="M12,1 L1,7 L12,13 M1,7 L12,7" stroke="#58a6ff" fill="none" stroke-width="1.4"/></marker><marker id="one" markerWidth="10" markerHeight="14" refX="2" refY="7" orient="auto"><path d="M6,2 L6,12" stroke="#58a6ff" stroke-width="1.6"/></marker></defs>
<path d="M280,102.0 C320,80.0 320,140.0 280,118.0" stroke="#58a6ff" fill="none" stroke-width="1.3" marker-end="url(#crow)"/>
<text x="324" y="110.0" fill="#8b949e" font-size="10">self</text>
<path d="M620,364.0 C665.0,364.0 665.0,119.0 710,119.0" stroke="#58a6ff" fill="none" stroke-width="1.3" marker-start="url(#one)" marker-end="url(#crow)"/>
<text x="665.0" y="237.5" fill="#8b949e" font-size="10" text-anchor="middle">po_id</text>
<path d="M280,582.0 C495.0,582.0 495.0,119.0 710,119.0" stroke="#58a6ff" fill="none" stroke-width="1.3" marker-start="url(#one)" marker-end="url(#crow)"/>
<text x="495.0" y="346.5" fill="#8b949e" font-size="10" text-anchor="middle">supplier_id</text>
<path d="M960,119.0 C1005.0,119.0 1005.0,128.0 1050,128.0" stroke="#58a6ff" fill="none" stroke-width="1.3" marker-start="url(#one)" marker-end="url(#crow)"/>
<text x="1005.0" y="119.5" fill="#8b949e" font-size="10" text-anchor="middle">grn_id</text>
<path d="M280,346.0 C665.0,346.0 665.0,128.0 1050,128.0" stroke="#58a6ff" fill="none" stroke-width="1.3" marker-start="url(#one)" marker-end="url(#crow)"/>
<text x="665.0" y="233.0" fill="#8b949e" font-size="10" text-anchor="middle">item_id</text>
<path d="M960,346.0 C1005.0,346.0 1005.0,128.0 1050,128.0" stroke="#58a6ff" fill="none" stroke-width="1.3" marker-start="url(#one)" marker-end="url(#crow)"/>
<text x="1005.0" y="233.0" fill="#8b949e" font-size="10" text-anchor="middle">po_line_id</text>
<path d="M280,346.0 C325.0,346.0 325.0,110.0 370,110.0" stroke="#58a6ff" fill="none" stroke-width="1.3" marker-start="url(#one)" marker-end="url(#crow)"/>
<text x="325.0" y="224.0" fill="#8b949e" font-size="10" text-anchor="middle">item_id</text>
<path d="M280,582.0 C325.0,582.0 325.0,364.0 370,364.0" stroke="#58a6ff" fill="none" stroke-width="1.3" marker-start="url(#one)" marker-end="url(#crow)"/>
<text x="325.0" y="469.0" fill="#8b949e" font-size="10" text-anchor="middle">supplier_id</text>
<path d="M280,346.0 C495.0,346.0 495.0,346.0 710,346.0" stroke="#58a6ff" fill="none" stroke-width="1.3" marker-start="url(#one)" marker-end="url(#crow)"/>
<text x="495.0" y="342.0" fill="#8b949e" font-size="10" text-anchor="middle">item_id</text>
<path d="M620,364.0 C665.0,364.0 665.0,346.0 710,346.0" stroke="#58a6ff" fill="none" stroke-width="1.3" marker-start="url(#one)" marker-end="url(#crow)"/>
<text x="665.0" y="351.0" fill="#8b949e" font-size="10" text-anchor="middle">po_id</text>
<path d="M280,346.0 C325.0,346.0 325.0,654.0 370,654.0" stroke="#58a6ff" fill="none" stroke-width="1.3" marker-start="url(#one)" marker-end="url(#crow)"/>
<text x="325.0" y="496.0" fill="#8b949e" font-size="10" text-anchor="middle">item_id</text>
<rect x="30" y="30" width="250" height="160" rx="7" fill="#161b22" stroke="#30363d" stroke-width="1.5"/>
<rect x="30" y="30" width="250" height="26" rx="7" fill="#1f6feb"/>
<rect x="30" y="49" width="250" height="7" fill="#1f6feb"/>
<text x="155.0" y="48" fill="#fff" font-weight="bold" text-anchor="middle">gl_account</text>
<text x="40" y="70" fill="#f0b72f">🔑 account_id</text>
<text x="270" y="70" fill="#6e7681" font-size="10" text-anchor="end">bigint</text>
<text x="40" y="88" fill="#c9d1d9">code</text>
<text x="270" y="88" fill="#6e7681" font-size="10" text-anchor="end">text</text>
<text x="40" y="106" fill="#c9d1d9">name</text>
<text x="270" y="106" fill="#6e7681" font-size="10" text-anchor="end">text</text>
<text x="40" y="124" fill="#c9d1d9">account_type</text>
<text x="270" y="124" fill="#6e7681" font-size="10" text-anchor="end">account_type</text>
<text x="40" y="142" fill="#c9d1d9">parent_account_id</text>
<text x="270" y="142" fill="#6e7681" font-size="10" text-anchor="end">bigint</text>
<text x="40" y="160" fill="#c9d1d9">is_postable</text>
<text x="270" y="160" fill="#6e7681" font-size="10" text-anchor="end">boolean</text>
<text x="40" y="178" fill="#c9d1d9">is_active</text>
<text x="270" y="178" fill="#6e7681" font-size="10" text-anchor="end">boolean</text>
<rect x="30" y="230" width="250" height="232" rx="7" fill="#161b22" stroke="#30363d" stroke-width="1.5"/>
<rect x="30" y="230" width="250" height="26" rx="7" fill="#1f6feb"/>
<rect x="30" y="249" width="250" height="7" fill="#1f6feb"/>
<text x="155.0" y="248" fill="#fff" font-weight="bold" text-anchor="middle">inventory_item</text>
<text x="40" y="270" fill="#f0b72f">🔑 item_id</text>
<text x="270" y="270" fill="#6e7681" font-size="10" text-anchor="end">bigint</text>
<text x="40" y="288" fill="#c9d1d9">code</text>
<text x="270" y="288" fill="#6e7681" font-size="10" text-anchor="end">text</text>
<text x="40" y="306" fill="#c9d1d9">name</text>
<text x="270" y="306" fill="#6e7681" font-size="10" text-anchor="end">text</text>
<text x="40" y="324" fill="#c9d1d9">type</text>
<text x="270" y="324" fill="#6e7681" font-size="10" text-anchor="end">item_type</text>
<text x="40" y="342" fill="#c9d1d9">unit</text>
<text x="270" y="342" fill="#6e7681" font-size="10" text-anchor="end">text</text>
<text x="40" y="360" fill="#c9d1d9">reorder_level</text>
<text x="270" y="360" fill="#6e7681" font-size="10" text-anchor="end">int</text>
<text x="40" y="378" fill="#c9d1d9">reorder_qty</text>
<text x="270" y="378" fill="#6e7681" font-size="10" text-anchor="end">int</text>
<text x="40" y="396" fill="#c9d1d9">cost_per_unit</text>
<text x="270" y="396" fill="#6e7681" font-size="10" text-anchor="end">numeric</text>
<text x="40" y="414" fill="#c9d1d9">is_active</text>
<text x="270" y="414" fill="#6e7681" font-size="10" text-anchor="end">boolean</text>
<text x="40" y="432" fill="#c9d1d9">created_at</text>
<text x="270" y="432" fill="#6e7681" font-size="10" text-anchor="end">timestamptz</text>
<text x="40" y="450" fill="#c9d1d9">updated_at</text>
<text x="270" y="450" fill="#6e7681" font-size="10" text-anchor="end">timestamptz</text>
<rect x="30" y="502" width="250" height="160" rx="7" fill="#161b22" stroke="#30363d" stroke-width="1.5"/>
<rect x="30" y="502" width="250" height="26" rx="7" fill="#1f6feb"/>
<rect x="30" y="521" width="250" height="7" fill="#1f6feb"/>
<text x="155.0" y="520" fill="#fff" font-weight="bold" text-anchor="middle">supplier</text>
<text x="40" y="542" fill="#f0b72f">🔑 supplier_id</text>
<text x="270" y="542" fill="#6e7681" font-size="10" text-anchor="end">bigint</text>
<text x="40" y="560" fill="#c9d1d9">party_id</text>
<text x="270" y="560" fill="#6e7681" font-size="10" text-anchor="end">bigint</text>
<text x="40" y="578" fill="#c9d1d9">supplier_code</text>
<text x="270" y="578" fill="#6e7681" font-size="10" text-anchor="end">text</text>
<text x="40" y="596" fill="#c9d1d9">contact_user_id</text>
<text x="270" y="596" fill="#6e7681" font-size="10" text-anchor="end">bigint</text>
<text x="40" y="614" fill="#c9d1d9">payment_terms_days</text>
<text x="270" y="614" fill="#6e7681" font-size="10" text-anchor="end">int</text>
<text x="40" y="632" fill="#c9d1d9">is_active</text>
<text x="270" y="632" fill="#6e7681" font-size="10" text-anchor="end">boolean</text>
<text x="40" y="650" fill="#c9d1d9">created_at</text>
<text x="270" y="650" fill="#6e7681" font-size="10" text-anchor="end">timestamptz</text>
<rect x="370" y="30" width="250" height="160" rx="7" fill="#161b22" stroke="#30363d" stroke-width="1.5"/>
<rect x="370" y="30" width="250" height="26" rx="7" fill="#1f6feb"/>
<rect x="370" y="49" width="250" height="7" fill="#1f6feb"/>
<text x="495.0" y="48" fill="#fff" font-weight="bold" text-anchor="middle">inventory_stock</text>
<text x="380" y="70" fill="#f0b72f">🔑 stock_id</text>
<text x="610" y="70" fill="#6e7681" font-size="10" text-anchor="end">bigint</text>
<text x="380" y="88" fill="#c9d1d9">item_id</text>
<text x="610" y="88" fill="#6e7681" font-size="10" text-anchor="end">bigint</text>
<text x="380" y="106" fill="#c9d1d9">department_id</text>
<text x="610" y="106" fill="#6e7681" font-size="10" text-anchor="end">bigint</text>
<text x="380" y="124" fill="#c9d1d9">qty_on_hand</text>
<text x="610" y="124" fill="#6e7681" font-size="10" text-anchor="end">int</text>
<text x="380" y="142" fill="#c9d1d9">qty_reserved</text>
<text x="610" y="142" fill="#6e7681" font-size="10" text-anchor="end">int</text>
<text x="380" y="160" fill="#c9d1d9">last_count_at</text>
<text x="610" y="160" fill="#6e7681" font-size="10" text-anchor="end">timestamptz</text>
<text x="380" y="178" fill="#c9d1d9">updated_at</text>
<text x="610" y="178" fill="#6e7681" font-size="10" text-anchor="end">timestamptz</text>
<rect x="370" y="230" width="250" height="268" rx="7" fill="#161b22" stroke="#30363d" stroke-width="1.5"/>
<rect x="370" y="230" width="250" height="26" rx="7" fill="#1f6feb"/>
<rect x="370" y="249" width="250" height="7" fill="#1f6feb"/>
<text x="495.0" y="248" fill="#fff" font-weight="bold" text-anchor="middle">purchase_order</text>
<text x="380" y="270" fill="#f0b72f">🔑 po_id</text>
<text x="610" y="270" fill="#6e7681" font-size="10" text-anchor="end">bigint</text>
<text x="380" y="288" fill="#c9d1d9">po_no</text>
<text x="610" y="288" fill="#6e7681" font-size="10" text-anchor="end">text</text>
<text x="380" y="306" fill="#c9d1d9">supplier_id</text>
<text x="610" y="306" fill="#6e7681" font-size="10" text-anchor="end">bigint</text>
<text x="380" y="324" fill="#c9d1d9">requested_by</text>
<text x="610" y="324" fill="#6e7681" font-size="10" text-anchor="end">bigint</text>
<text x="380" y="342" fill="#c9d1d9">approved_by</text>
<text x="610" y="342" fill="#6e7681" font-size="10" text-anchor="end">bigint</text>
<text x="380" y="360" fill="#c9d1d9">status</text>
<text x="610" y="360" fill="#6e7681" font-size="10" text-anchor="end">po_status</text>
<text x="380" y="378" fill="#c9d1d9">expected_at</text>
<text x="610" y="378" fill="#6e7681" font-size="10" text-anchor="end">date</text>
<text x="380" y="396" fill="#c9d1d9">ordered_at</text>
<text x="610" y="396" fill="#6e7681" font-size="10" text-anchor="end">timestamptz</text>
<text x="380" y="414" fill="#c9d1d9">received_at</text>
<text x="610" y="414" fill="#6e7681" font-size="10" text-anchor="end">timestamptz</text>
<text x="380" y="432" fill="#c9d1d9">closed_at</text>
<text x="610" y="432" fill="#6e7681" font-size="10" text-anchor="end">timestamptz</text>
<text x="380" y="450" fill="#c9d1d9">notes</text>
<text x="610" y="450" fill="#6e7681" font-size="10" text-anchor="end">text</text>
<text x="380" y="468" fill="#c9d1d9">created_at</text>
<text x="610" y="468" fill="#6e7681" font-size="10" text-anchor="end">timestamptz</text>
<text x="380" y="486" fill="#c9d1d9">updated_at</text>
<text x="610" y="486" fill="#6e7681" font-size="10" text-anchor="end">timestamptz</text>
<rect x="370" y="538" width="250" height="232" rx="7" fill="#161b22" stroke="#30363d" stroke-width="1.5"/>
<rect x="370" y="538" width="250" height="26" rx="7" fill="#1f6feb"/>
<rect x="370" y="557" width="250" height="7" fill="#1f6feb"/>
<text x="495.0" y="556" fill="#fff" font-weight="bold" text-anchor="middle">stock_movement</text>
<text x="380" y="578" fill="#f0b72f">🔑 movement_id</text>
<text x="610" y="578" fill="#6e7681" font-size="10" text-anchor="end">bigint</text>
<text x="380" y="596" fill="#c9d1d9">item_id</text>
<text x="610" y="596" fill="#6e7681" font-size="10" text-anchor="end">bigint</text>
<text x="380" y="614" fill="#c9d1d9">from_department_id</text>
<text x="610" y="614" fill="#6e7681" font-size="10" text-anchor="end">bigint</text>
<text x="380" y="632" fill="#c9d1d9">to_department_id</text>
<text x="610" y="632" fill="#6e7681" font-size="10" text-anchor="end">bigint</text>
<text x="380" y="650" fill="#c9d1d9">qty_delta</text>
<text x="610" y="650" fill="#6e7681" font-size="10" text-anchor="end">int</text>
<text x="380" y="668" fill="#c9d1d9">movement_type</text>
<text x="610" y="668" fill="#6e7681" font-size="10" text-anchor="end">move_type</text>
<text x="380" y="686" fill="#c9d1d9">reference_table</text>
<text x="610" y="686" fill="#6e7681" font-size="10" text-anchor="end">text</text>
<text x="380" y="704" fill="#c9d1d9">reference_id</text>
<text x="610" y="704" fill="#6e7681" font-size="10" text-anchor="end">bigint</text>
<text x="380" y="722" fill="#c9d1d9">performed_by</text>
<text x="610" y="722" fill="#6e7681" font-size="10" text-anchor="end">bigint</text>
<text x="380" y="740" fill="#c9d1d9">performed_at</text>
<text x="610" y="740" fill="#6e7681" font-size="10" text-anchor="end">timestamptz</text>
<text x="380" y="758" fill="#c9d1d9">reason</text>
<text x="610" y="758" fill="#6e7681" font-size="10" text-anchor="end">text</text>
<rect x="710" y="30" width="250" height="178" rx="7" fill="#161b22" stroke="#30363d" stroke-width="1.5"/>
<rect x="710" y="30" width="250" height="26" rx="7" fill="#1f6feb"/>
<rect x="710" y="49" width="250" height="7" fill="#1f6feb"/>
<text x="835.0" y="48" fill="#fff" font-weight="bold" text-anchor="middle">goods_receipt</text>
<text x="720" y="70" fill="#f0b72f">🔑 grn_id</text>
<text x="950" y="70" fill="#6e7681" font-size="10" text-anchor="end">bigint</text>
<text x="720" y="88" fill="#c9d1d9">grn_no</text>
<text x="950" y="88" fill="#6e7681" font-size="10" text-anchor="end">text</text>
<text x="720" y="106" fill="#c9d1d9">po_id</text>
<text x="950" y="106" fill="#6e7681" font-size="10" text-anchor="end">bigint</text>
<text x="720" y="124" fill="#c9d1d9">supplier_id</text>
<text x="950" y="124" fill="#6e7681" font-size="10" text-anchor="end">bigint</text>
<text x="720" y="142" fill="#c9d1d9">received_by</text>
<text x="950" y="142" fill="#6e7681" font-size="10" text-anchor="end">bigint</text>
<text x="720" y="160" fill="#c9d1d9">received_at</text>
<text x="950" y="160" fill="#6e7681" font-size="10" text-anchor="end">timestamptz</text>
<text x="720" y="178" fill="#c9d1d9">status</text>
<text x="950" y="178" fill="#6e7681" font-size="10" text-anchor="end">grn_status</text>
<text x="720" y="196" fill="#c9d1d9">notes</text>
<text x="950" y="196" fill="#6e7681" font-size="10" text-anchor="end">text</text>
<rect x="710" y="248" width="250" height="196" rx="7" fill="#161b22" stroke="#30363d" stroke-width="1.5"/>
<rect x="710" y="248" width="250" height="26" rx="7" fill="#1f6feb"/>
<rect x="710" y="267" width="250" height="7" fill="#1f6feb"/>
<text x="835.0" y="266" fill="#fff" font-weight="bold" text-anchor="middle">purchase_order_line</text>
<text x="720" y="288" fill="#f0b72f">🔑 line_id</text>
<text x="950" y="288" fill="#6e7681" font-size="10" text-anchor="end">bigint</text>
<text x="720" y="306" fill="#c9d1d9">po_id</text>
<text x="950" y="306" fill="#6e7681" font-size="10" text-anchor="end">bigint</text>
<text x="720" y="324" fill="#c9d1d9">item_id</text>
<text x="950" y="324" fill="#6e7681" font-size="10" text-anchor="end">bigint</text>
<text x="720" y="342" fill="#c9d1d9">drug_item_id</text>
<text x="950" y="342" fill="#6e7681" font-size="10" text-anchor="end">bigint</text>
<text x="720" y="360" fill="#c9d1d9">item_description</text>
<text x="950" y="360" fill="#6e7681" font-size="10" text-anchor="end">text</text>
<text x="720" y="378" fill="#c9d1d9">qty</text>
<text x="950" y="378" fill="#6e7681" font-size="10" text-anchor="end">int</text>
<text x="720" y="396" fill="#c9d1d9">unit_price</text>
<text x="950" y="396" fill="#6e7681" font-size="10" text-anchor="end">numeric</text>
<text x="720" y="414" fill="#c9d1d9">qty_received</text>
<text x="950" y="414" fill="#6e7681" font-size="10" text-anchor="end">int</text>
<text x="720" y="432" fill="#c9d1d9">line_total</text>
<text x="950" y="432" fill="#6e7681" font-size="10" text-anchor="end">numeric</text>
<rect x="1050" y="30" width="250" height="196" rx="7" fill="#161b22" stroke="#30363d" stroke-width="1.5"/>
<rect x="1050" y="30" width="250" height="26" rx="7" fill="#1f6feb"/>
<rect x="1050" y="49" width="250" height="7" fill="#1f6feb"/>
<text x="1175.0" y="48" fill="#fff" font-weight="bold" text-anchor="middle">goods_receipt_line</text>
<text x="1060" y="70" fill="#f0b72f">🔑 line_id</text>
<text x="1290" y="70" fill="#6e7681" font-size="10" text-anchor="end">bigint</text>
<text x="1060" y="88" fill="#c9d1d9">grn_id</text>
<text x="1290" y="88" fill="#6e7681" font-size="10" text-anchor="end">bigint</text>
<text x="1060" y="106" fill="#c9d1d9">po_line_id</text>
<text x="1290" y="106" fill="#6e7681" font-size="10" text-anchor="end">bigint</text>
<text x="1060" y="124" fill="#c9d1d9">item_id</text>
<text x="1290" y="124" fill="#6e7681" font-size="10" text-anchor="end">bigint</text>
<text x="1060" y="142" fill="#c9d1d9">drug_item_id</text>
<text x="1290" y="142" fill="#6e7681" font-size="10" text-anchor="end">bigint</text>
<text x="1060" y="160" fill="#c9d1d9">qty_received</text>
<text x="1290" y="160" fill="#6e7681" font-size="10" text-anchor="end">int</text>
<text x="1060" y="178" fill="#c9d1d9">lot_number</text>
<text x="1290" y="178" fill="#6e7681" font-size="10" text-anchor="end">text</text>
<text x="1060" y="196" fill="#c9d1d9">expiration_date</text>
<text x="1290" y="196" fill="#6e7681" font-size="10" text-anchor="end">date</text>
<text x="1060" y="214" fill="#c9d1d9">unit_cost</text>
<text x="1290" y="214" fill="#6e7681" font-size="10" text-anchor="end">numeric</text>
</svg>